<svg width="100" height="100" viewBox="0 0 24 24" fill="none" xmlns="http://www.w3.org/2000/svg">
    <g clip-path="url(#clip0_16_18174)">
        <path
            d="M12 21C16.9706 21 21 16.9706 21 12C21 7.02944 16.9706 3 12 3C7.02944 3 3 7.02944 3 12C3 16.9706 7.02944 21 12 21Z"
            stroke="white" stroke-width="1" stroke-linecap="round" stroke-linejoin="round" />
        <path
            d="M13.867 9.74991C13.621 9.26991 13.159 8.98091 12.667 8.99991H11.333C10.597 8.99991 10 9.66991 10 10.4999C10 11.3269 10.597 11.9989 11.333 11.9989H12.667C13.403 11.9989 14 12.6699 14 13.4989C14 14.3269 13.403 14.9979 12.667 14.9979H11.333C10.841 15.0169 10.379 14.7279 10.133 14.2479"
            stroke="white" stroke-width="1" stroke-linecap="round" stroke-linejoin="round" />
        <path d="M12 7V9" stroke="white" stroke-width="1" stroke-linecap="round"
            stroke-linejoin="round" />
        <path d="M12 15V17" stroke="white" stroke-width="1" stroke-linecap="round"
            stroke-linejoin="round" />
        <path d="M6 6L7.5 7.5" stroke="white" stroke-width="1" stroke-linecap="round"
            stroke-linejoin="round" />
        <path d="M16.5 16.5L18 18" stroke="white" stroke-width="1" stroke-linecap="round"
            stroke-linejoin="round" />
    </g>
    <defs>
        <clipPath id="clip0_16_18174">
            <rect width="24" height="24" fill="white" />
        </clipPath>
    </defs>
</svg>
    